<svg xmlns="http://www.w3.org/2000/svg" version="1.1" viewBox="0.00 0.00 456.00 548.00">
<g stroke-width="2.00" fill="none" stroke-linecap="butt">
<path stroke="#dadbdb" stroke-opacity="0.804" vector-effect="non-scaling-stroke" d="   M 169.42 469.37   Q 170.59 471.72 173.40 472.26   Q 174.72 472.51 175.43 472.99   Q 176.38 473.61 177.20 474.33   A 1.23 1.23 0.0 0 0 178.08 474.63   Q 179.67 474.54 180.74 475.83   A 1.81 1.76 -9.2 0 0 181.55 476.40   Q 184.02 477.32 186.34 478.13   Q 187.10 478.40 191.26 479.46   Q 194.94 480.40 197.98 482.51   C 199.21 483.37 200.67 483.38 202.11 483.37   Q 202.69 483.36 202.13 483.19   Q 202.08 483.18 202.02 483.19   Q 201.48 483.31 200.87 483.23   Q 200.81 483.22 200.81 483.16   Q 200.81 483.14 200.81 483.11   Q 200.81 483.02 200.90 483.03   Q 205.37 483.52 209.92 482.55"/>
<path stroke="#dadbdb" stroke-opacity="0.804" vector-effect="non-scaling-stroke" d="   M 213.15 483.06   Q 216.37 486.40 220.44 486.09   Q 220.80 486.06 220.51 486.28   Q 220.48 486.31 220.42 486.29   Q 220.24 486.24 220.07 486.25   Q 219.78 486.27 220.07 486.29   L 227.05 486.75"/>
<path stroke="#dadbdb" stroke-opacity="0.804" vector-effect="non-scaling-stroke" d="   M 345.92 468.89   L 350.73 468.68   Q 351.30 468.66 351.68 468.24   Q 353.00 466.80 354.94 466.45   Q 355.54 466.34 356.08 465.96   Q 356.44 465.71 356.81 465.95   Q 357.22 466.21 357.62 465.93   Q 358.88 465.05 360.28 464.46   Q 362.88 463.38 365.26 461.09   Q 365.83 460.55 366.61 460.42   Q 369.06 460.04 371.15 458.31   Q 371.52 458.00 371.68 457.54   Q 372.00 456.60 372.83 455.99   Q 373.51 455.49 374.11 454.86   Q 375.86 452.99 377.69 450.81"/>
<path stroke="#dadbdb" stroke-opacity="0.804" vector-effect="non-scaling-stroke" d="   M 390.30 440.97   Q 390.29 441.10 390.61 441.13   Q 391.09 441.16 390.75 441.51   L 390.45 441.80   A 0.35 0.35 0.0 0 0 390.61 442.39   Q 390.80 442.44 390.98 442.36   Q 392.64 441.60 393.00 440.54"/>
<path stroke="#dadbdb" stroke-opacity="0.804" vector-effect="non-scaling-stroke" d="   M 393.00 440.54   Q 396.30 439.93 398.04 437.11"/>
<path stroke="#dadbdb" stroke-opacity="0.804" vector-effect="non-scaling-stroke" d="   M 223.00 485.28   Q 220.16 485.46 217.38 485.35   Q 217.37 485.35 217.37 485.36   Q 217.37 485.37 217.37 485.37   Q 217.37 485.39 217.40 485.39   Q 220.54 485.37 223.73 485.39"/>
</g>
<path fill="#ffffff" d="   M 169.42 469.37   Q 170.59 471.72 173.40 472.26   Q 174.72 472.51 175.43 472.99   Q 176.38 473.61 177.20 474.33   A 1.23 1.23 0.0 0 0 178.08 474.63   Q 179.67 474.54 180.74 475.83   A 1.81 1.76 -9.2 0 0 181.55 476.40   Q 184.02 477.32 186.34 478.13   Q 187.10 478.40 191.26 479.46   Q 194.94 480.40 197.98 482.51   C 199.21 483.37 200.67 483.38 202.11 483.37   Q 202.69 483.36 202.13 483.19   Q 202.08 483.18 202.02 483.19   Q 201.48 483.31 200.87 483.23   Q 200.81 483.22 200.81 483.16   Q 200.81 483.14 200.81 483.11   Q 200.81 483.02 200.90 483.03   Q 205.37 483.52 209.92 482.55   Q 211.30 483.11 213.15 483.06   Q 216.37 486.40 220.44 486.09   Q 220.80 486.06 220.51 486.28   Q 220.48 486.31 220.42 486.29   Q 220.24 486.24 220.07 486.25   Q 219.78 486.27 220.07 486.29   L 227.05 486.75   Q 248.09 489.57 269.37 488.61   C 279.72 488.14 289.49 485.41 299.81 483.77   Q 306.08 482.78 311.66 480.88   Q 317.42 478.93 323.52 477.28   Q 327.63 476.17 333.70 473.54   Q 339.73 470.91 345.92 468.89   L 350.73 468.68   Q 351.30 468.66 351.68 468.24   Q 353.00 466.80 354.94 466.45   Q 355.54 466.34 356.08 465.96   Q 356.44 465.71 356.81 465.95   Q 357.22 466.21 357.62 465.93   Q 358.88 465.05 360.28 464.46   Q 362.88 463.38 365.26 461.09   Q 365.83 460.55 366.61 460.42   Q 369.06 460.04 371.15 458.31   Q 371.52 458.00 371.68 457.54   Q 372.00 456.60 372.83 455.99   Q 373.51 455.49 374.11 454.86   Q 375.86 452.99 377.69 450.81   L 390.30 440.97   Q 390.29 441.10 390.61 441.13   Q 391.09 441.16 390.75 441.51   L 390.45 441.80   A 0.35 0.35 0.0 0 0 390.61 442.39   Q 390.80 442.44 390.98 442.36   Q 392.64 441.60 393.00 440.54   Q 396.30 439.93 398.04 437.11   Q 398.92 436.35 399.79 435.48   Q 400.61 434.65 401.00 433.58   Q 401.88 431.19 404.43 429.55   Q 405.48 428.87 405.01 430.03   Q 404.61 431.01 403.98 431.88   Q 403.48 432.57 404.20 432.11   Q 405.72 431.15 406.21 429.51   Q 406.33 429.43 406.36 429.30   Q 406.46 428.84 406.11 429.48   Q 405.90 429.87 405.63 430.23   Q 405.13 430.90 405.16 430.06   Q 405.19 428.90 405.92 428.18   Q 409.83 424.29 416.20 420.47   C 418.70 418.97 422.10 418.74 424.93 419.30   Q 426.01 419.51 424.91 419.58   Q 423.56 419.66 422.62 419.62   Q 422.56 419.62 422.61 419.59   Q 422.62 419.58 422.63 419.58   Q 422.65 419.57 422.66 419.57   Q 430.32 419.86 435.89 424.54   Q 439.78 427.80 440.83 432.51   C 441.82 436.92 442.28 445.63 438.45 449.10   C 435.70 451.59 433.83 454.70 431.02 457.19   C 426.15 461.52 421.88 466.26 416.49 470.02   C 412.84 472.56 409.52 475.43 405.88 477.98   Q 394.50 485.93 390.03 488.55   Q 386.29 490.75 382.39 493.20   Q 379.06 495.30 376.40 496.27   C 371.73 497.97 368.13 501.01 363.61 502.87   Q 357.79 505.25 352.09 507.67   C 348.04 509.39 343.49 510.00 339.49 512.15   C 334.59 514.77 329.41 515.51 324.04 516.59   Q 319.42 517.53 313.49 519.86   Q 309.25 521.52 302.34 521.85   C 292.27 522.33 282.61 523.30 272.25 523.34   Q 255.83 523.40 240.72 523.29   C 230.10 523.21 219.15 522.13 208.59 521.60   Q 203.83 521.36 199.07 519.39   C 190.87 515.99 182.18 516.29 174.13 512.29   C 169.63 510.06 164.81 509.41 160.43 507.17   Q 155.81 504.79 150.94 502.94   C 146.40 501.22 142.81 498.21 138.19 496.48   Q 135.07 495.32 132.17 493.49   Q 127.20 490.35 122.06 487.23   Q 117.11 484.23 102.63 473.52   Q 94.44 467.46 86.96 460.55   C 74.06 448.64 62.40 436.31 52.62 422.46   Q 48.53 416.65 44.61 411.12   Q 42.41 408.01 41.18 405.33   C 39.13 400.87 36.03 397.51 34.17 393.01   C 32.68 389.43 30.55 386.32 28.93 382.76   Q 26.54 377.50 23.81 372.32   C 21.86 368.60 21.47 363.80 19.38 359.87   C 16.75 354.94 15.61 350.02 14.66 344.08   C 13.89 339.27 10.96 333.75 9.92 328.04   Q 9.49 325.68 9.26 322.99   C 8.57 314.79 7.97 306.76 6.76 298.71   Q 4.39 283.06 5.15 268.38   C 5.99 252.33 7.16 235.50 9.10 219.53   Q 9.79 213.81 12.62 206.81   C 15.09 200.68 14.78 193.97 17.42 187.91   C 18.62 185.14 20.12 182.50 21.03 179.63   Q 21.88 176.96 22.83 174.33   C 24.67 169.25 27.55 164.20 29.93 159.39   Q 36.75 145.56 45.60 131.96   C 61.30 107.84 81.80 86.78 105.15 69.18   Q 109.74 65.72 115.45 62.11   Q 120.98 58.61 125.97 55.22   C 130.81 51.93 136.24 49.93 140.97 46.47   C 144.37 43.99 148.77 43.72 152.34 41.46   Q 157.79 38.01 164.32 36.29   C 169.18 35.02 173.39 32.13 178.14 31.22   Q 183.73 30.16 187.78 28.49   Q 194.67 25.64 198.66 25.12   Q 209.20 23.72 218.69 21.91   Q 229.31 19.88 237.69 19.23   Q 258.25 17.63 279.85 19.58   Q 285.89 20.12 292.37 21.64   Q 299.80 23.39 308.86 24.14   Q 311.91 24.40 315.03 25.00   C 319.00 25.75 322.56 27.30 326.25 28.74   C 329.68 30.07 333.36 30.73 336.99 31.43   C 340.78 32.18 343.49 34.54 347.07 35.69   C 351.47 37.10 355.85 38.37 359.87 40.70   Q 363.86 43.02 368.55 44.54   C 372.82 45.92 376.13 48.99 380.26 50.80   Q 383.21 52.09 386.31 54.18   C 392.55 58.39 398.92 62.38 404.81 66.95   C 407.70 69.18 410.71 71.01 413.61 73.28   Q 425.37 82.46 434.72 91.36   C 437.20 93.73 440.34 96.77 440.95 100.38   C 441.57 104.10 442.26 111.13 440.33 113.90   Q 434.74 121.88 428.15 128.32   Q 415.52 140.69 402.94 153.60   C 396.66 160.03 389.91 166.37 383.18 171.95   C 378.91 175.50 372.44 175.53 367.28 173.97   Q 364.53 173.14 360.22 169.68   Q 349.06 160.71 337.37 151.83   Q 333.56 148.93 328.78 146.09   C 323.03 142.67 317.04 140.33 311.40 137.32   C 307.05 134.99 302.50 134.31 297.82 133.23   Q 293.42 132.22 289.07 129.87   Q 287.59 129.07 283.00 128.69   Q 275.53 128.07 267.99 127.51   C 256.74 126.67 246.88 127.07 235.71 128.33   C 231.78 128.77 227.95 129.61 224.23 130.97   Q 219.23 132.81 213.45 134.28   Q 205.09 136.42 194.06 141.93   Q 166.28 155.82 147.15 177.62   Q 142.07 183.41 136.66 191.37   C 134.09 195.16 131.99 199.30 129.60 203.20   C 126.39 208.43 124.27 214.08 121.64 219.61   C 119.99 223.08 119.31 227.21 118.22 230.92   Q 117.41 233.70 115.93 236.57   Q 113.60 241.09 113.22 245.53   Q 111.17 269.42 113.26 294.85   C 113.53 298.10 114.00 301.66 115.32 304.61   Q 117.81 310.16 119.32 315.99   C 120.66 321.11 122.80 325.80 124.71 330.71   Q 125.83 333.59 127.41 336.37   Q 133.33 346.81 135.24 349.74   Q 149.42 371.47 169.99 387.30   Q 173.19 389.77 181.76 395.99   C 185.04 398.36 189.91 399.67 193.63 402.17   C 198.18 405.22 203.44 405.83 208.32 408.38   Q 214.17 411.44 222.15 412.74   Q 226.05 413.37 229.97 414.64   Q 236.35 416.70 242.61 417.14   Q 256.81 418.13 270.58 417.33   Q 274.92 417.08 279.20 415.81   Q 288.68 413.00 298.55 411.31   C 299.83 411.09 301.57 410.41 302.76 409.82   Q 307.94 407.27 312.92 405.39   C 319.39 402.94 324.35 399.72 330.29 396.94   C 334.45 394.99 338.19 392.22 342.00 389.69   C 343.28 388.84 343.95 387.02 342.98 385.66   Q 335.72 375.50 327.03 368.01   Q 324.94 366.21 322.64 364.89   A 2.68 2.67 -45.5 0 0 319.93 364.92   Q 310.75 370.42 301.12 375.51   Q 299.21 376.52 297.15 377.07   Q 289.43 379.12 280.78 381.61   Q 275.69 383.08 268.25 383.51   C 255.49 384.25 242.11 384.39 230.00 380.28   Q 225.06 378.60 218.98 377.34   C 217.29 376.99 215.33 376.29 213.82 375.43   C 208.57 372.43 203.12 371.04 198.08 367.54   Q 189.56 361.62 182.47 355.78   C 178.77 352.73 174.84 348.89 171.86 345.03   Q 162.73 333.24 161.37 330.42   Q 158.72 324.87 155.77 319.38   Q 153.95 315.98 153.36 312.67   C 152.70 309.03 151.78 305.34 150.40 301.85   Q 147.17 293.67 146.86 283.46   C 146.43 268.81 146.02 254.22 150.57 240.20   C 152.10 235.50 152.93 230.66 155.08 226.19   Q 159.90 216.21 163.71 210.11   Q 171.36 197.84 185.34 185.99   C 189.63 182.36 194.81 179.13 199.57 175.95   C 204.71 172.51 210.74 169.81 216.79 167.83   C 221.79 166.20 226.60 163.57 232.01 162.95   Q 260.00 159.73 284.76 163.39   C 288.74 163.98 291.86 166.78 295.28 167.66   Q 302.72 169.58 307.50 172.14   Q 321.03 179.40 332.92 190.14   Q 336.90 193.73 340.30 199.29   C 343.04 203.76 342.94 209.88 339.56 214.13   C 337.44 216.81 335.81 220.37 332.65 221.90   Q 328.00 224.16 323.44 225.26   C 319.73 226.15 313.07 221.53 310.31 219.40   Q 304.76 215.11 297.74 210.07   Q 294.48 207.73 290.95 206.12   C 287.52 204.56 284.65 201.57 280.89 200.83   Q 270.24 198.73 260.81 197.31   Q 257.37 196.80 253.52 197.36   Q 244.57 198.66 236.80 200.31   C 233.94 200.92 231.13 201.96 228.55 203.35   Q 222.50 206.58 216.83 209.92   C 207.49 215.40 200.51 222.37 194.55 231.80   Q 190.55 238.13 187.02 244.74   Q 185.74 247.13 184.86 252.79   C 183.94 258.68 182.26 264.57 181.19 270.20   Q 180.69 272.81 181.40 275.81   Q 182.65 281.05 183.87 285.76   C 185.14 290.63 185.28 295.85 187.60 300.43   Q 191.35 307.87 197.30 316.40   C 202.66 324.08 210.64 330.37 218.09 335.48   Q 221.74 337.98 227.06 339.96   C 231.80 341.72 236.18 344.12 241.34 344.83   Q 256.61 346.93 272.73 344.97   Q 274.89 344.71 277.02 343.89   Q 288.06 339.66 296.75 334.28   C 303.74 329.94 310.29 324.35 317.73 320.36   Q 319.79 319.25 322.70 319.53   C 334.42 320.64 340.00 329.13 347.76 336.73   Q 368.38 356.90 385.18 374.04   C 391.11 380.10 391.40 390.72 388.50 398.54   Q 387.71 400.66 385.89 402.42   Q 376.72 411.31 367.95 418.04   Q 361.74 422.80 355.50 426.34   C 348.30 430.43 341.55 434.96 334.11 438.11   C 330.21 439.76 326.56 441.74 322.53 442.96   Q 317.40 444.52 312.48 446.65   Q 307.75 448.69 303.86 449.15   C 296.07 450.07 288.21 450.53 280.60 452.49   Q 274.62 454.02 269.26 454.34   Q 256.12 455.10 242.57 454.35   C 236.54 454.02 230.93 451.84 224.96 451.06   Q 216.47 449.95 208.19 448.99   C 205.94 448.72 203.63 447.86 201.66 446.81   C 196.14 443.87 189.96 442.88 184.47 439.94   C 180.50 437.82 176.41 436.25 172.40 434.06   Q 156.26 425.26 142.03 414.28   C 126.02 401.93 112.15 385.32 101.67 367.63   Q 95.07 356.50 89.29 344.16   C 87.99 341.38 87.23 338.76 86.30 335.89   C 85.19 332.43 83.01 329.10 82.30 325.67   Q 80.87 318.74 79.83 311.96   Q 79.15 307.50 77.92 303.70   Q 76.43 299.08 76.12 295.37   Q 74.44 275.30 76.06 252.10   C 76.36 247.77 77.09 243.25 77.95 239.04   Q 79.90 229.52 81.71 219.26   Q 82.06 217.28 84.33 212.78   C 86.66 208.14 87.36 202.97 89.61 198.24   C 96.86 183.04 105.49 168.43 116.38 155.77   Q 126.18 144.38 136.38 135.21   Q 145.74 126.79 158.23 118.56   C 162.28 115.89 166.42 113.99 170.42 111.46   C 174.02 109.19 178.01 107.50 181.89 105.68   C 187.41 103.10 193.45 101.09 199.32 98.61   Q 202.61 97.21 207.84 96.39   C 212.00 95.73 215.76 94.49 219.63 93.08   Q 221.85 92.27 224.40 91.86   Q 233.08 90.48 239.07 90.24   C 253.91 89.66 268.58 89.61 283.01 90.96   Q 289.14 91.53 292.61 92.97   C 297.90 95.16 303.04 95.97 308.66 97.07   C 314.65 98.24 320.02 101.44 325.92 103.36   C 330.45 104.84 334.52 107.18 338.89 109.05   Q 341.56 110.20 343.83 111.95   C 347.72 114.96 352.19 116.13 356.17 118.92   Q 363.20 123.86 370.16 128.38   A 2.88 2.88 0.0 0 0 373.69 128.06   C 378.29 123.74 383.05 119.62 387.17 114.83   Q 390.07 111.45 393.38 108.49   Q 395.62 106.50 393.21 104.72   Q 384.90 98.60 376.78 92.52   Q 374.80 91.04 372.34 89.68   Q 355.66 80.39 338.48 72.11   Q 333.64 69.77 329.61 68.83   Q 324.27 67.59 319.17 65.29   C 312.71 62.38 305.42 61.69 298.52 60.64   Q 294.04 59.97 288.73 57.99   Q 286.86 57.30 284.50 57.15   Q 255.39 55.36 230.36 57.34   C 223.42 57.89 216.83 60.04 210.02 61.29   C 201.74 62.82 194.43 65.67 186.61 68.10   C 179.33 70.37 172.67 73.41 165.81 76.54   C 158.73 79.75 152.14 83.89 145.22 87.72   Q 139.55 90.86 134.14 94.73   Q 121.17 104.01 109.99 114.26   C 104.41 119.38 98.72 125.62 93.24 131.43   C 91.56 133.20 90.34 135.21 88.80 137.06   Q 81.84 145.48 77.62 152.21   Q 74.10 157.84 70.58 163.63   C 67.69 168.39 66.03 173.41 63.16 178.16   C 60.65 182.32 59.79 187.12 57.34 191.27   Q 54.45 196.16 53.08 201.29   C 51.35 207.84 48.54 213.79 47.36 220.10   Q 46.05 227.08 43.72 234.48   Q 41.37 241.95 41.19 251.98   C 40.96 264.87 40.59 277.51 41.34 290.25   C 41.67 295.98 42.39 300.99 43.92 306.98   Q 45.62 313.67 47.29 321.00   Q 48.25 325.21 50.83 332.79   Q 52.70 338.26 54.11 344.65   Q 54.52 346.54 56.94 350.98   C 58.96 354.71 59.95 358.72 61.95 362.36   C 64.84 367.63 67.41 373.16 70.38 378.33   Q 76.86 389.63 84.28 400.38   Q 87.73 405.38 91.49 409.75   Q 107.73 428.69 123.41 441.23   Q 132.33 448.36 145.92 456.32   Q 147.45 457.22 148.71 458.44   Q 149.38 459.08 150.24 459.45   Q 151.13 459.84 151.95 460.39   Q 156.18 463.27 160.74 465.25   Q 161.32 465.50 161.77 465.87   Q 162.31 466.32 163.05 466.32   Q 163.32 466.32 163.37 466.59   Q 163.48 467.11 164.12 467.25   Q 164.44 467.32 164.73 467.49   Q 167.12 468.94 169.42 469.37   Z"/>
<path fill="#9d9fa0" fill-opacity="0.608" d="   M 399.70 434.08   Q 399.86 433.20 400.54 432.61   Q 401.14 432.09 401.02 432.88   Q 400.86 433.82 400.21 434.37   Q 399.55 434.93 399.70 434.08   Z"/>
<path fill="#9d9fa0" fill-opacity="0.608" d="   M 398.71 435.28   Q 398.78 435.40 398.78 435.57   Q 398.77 435.72 398.63 435.80   Q 396.77 436.76 395.13 438.14   Q 394.41 438.75 393.44 438.99   Q 392.73 439.17 393.16 438.58   Q 393.88 437.62 394.70 437.10   Q 397.00 435.64 398.81 433.78   Q 399.48 433.10 399.40 434.05   Q 399.38 434.26 399.35 434.48   Q 399.29 434.82 398.96 434.83   Q 398.45 434.84 398.71 435.28   Z"/>
<path fill="#9d9fa0" fill-opacity="0.608" d="   M 398.04 437.11   Q 396.30 439.93 393.00 440.54   Q 393.26 439.34 394.89 439.16   Q 395.37 439.10 395.70 438.74   Q 396.72 437.58 398.04 437.11   Z"/>
<path fill="#9d9fa0" fill-opacity="0.608" d="   M 393.00 440.54   Q 392.64 441.60 390.98 442.36   Q 390.80 442.44 390.61 442.39   A 0.35 0.35 0.0 0 1 390.45 441.80   L 390.75 441.51   Q 391.09 441.16 390.61 441.13   Q 390.29 441.10 390.30 440.97   Q 390.65 440.16 391.46 439.88   Q 391.90 439.74 392.11 440.14   Q 392.35 440.58 393.00 440.54   Z"/>
<path fill="#9d9fa0" fill-opacity="0.608" d="   M 377.69 450.81   Q 375.86 452.99 374.11 454.86   Q 373.51 455.49 372.83 455.99   Q 372.00 456.60 371.68 457.54   Q 371.52 458.00 371.15 458.31   Q 369.06 460.04 366.61 460.42   Q 365.83 460.55 365.26 461.09   Q 362.88 463.38 360.28 464.46   Q 358.88 465.05 357.62 465.93   Q 357.22 466.21 356.81 465.95   Q 356.44 465.71 356.08 465.96   Q 355.54 466.34 354.94 466.45   Q 353.00 466.80 351.68 468.24   Q 351.30 468.66 350.73 468.68   L 345.92 468.89   L 352.95 464.66   Q 353.39 464.40 353.89 464.44   Q 355.07 464.52 355.80 463.77   A 2.22 2.18 -75.4 0 1 356.77 463.19   Q 358.44 462.71 359.79 461.60   Q 360.82 460.75 361.93 460.06   Q 362.92 459.45 364.12 459.30   Q 366.23 459.05 368.12 457.47   Q 368.48 457.17 368.01 457.20   Q 367.84 457.21 367.93 456.68   A 0.33 0.32 86.9 0 1 368.14 456.44   Q 369.58 455.90 370.66 454.66   Q 370.78 454.52 370.94 454.45   Q 371.16 454.35 371.37 454.39   Q 371.78 454.47 371.54 454.12   Q 371.47 454.02 371.42 453.89   Q 371.36 453.73 371.52 453.66   L 377.69 450.81   Z"/>
<path fill="#9d9fa0" fill-opacity="0.608" d="   M 169.42 469.37   Q 173.19 469.95 176.66 470.98   Q 176.77 471.01 176.76 471.12   Q 176.75 471.15 176.75 471.18   Q 176.75 471.27 176.84 471.28   Q 177.77 471.35 178.74 471.64   Q 179.79 471.95 180.60 472.52   Q 184.65 475.39 189.70 475.89   A 0.02 0.01 46.9 0 1 189.70 475.92   Q 188.73 475.88 187.67 476.08   Q 187.00 476.21 187.64 476.46   C 188.61 476.84 189.52 476.47 190.49 476.67   Q 192.94 477.16 195.50 477.50   Q 196.17 477.59 196.90 477.66   Q 197.79 477.74 198.54 478.07   Q 203.98 480.46 209.92 482.55   Q 205.37 483.52 200.90 483.03   Q 200.81 483.02 200.81 483.11   Q 200.81 483.14 200.81 483.16   Q 200.81 483.22 200.87 483.23   Q 201.48 483.31 202.02 483.19   Q 202.08 483.18 202.13 483.19   Q 202.69 483.36 202.11 483.37   C 200.67 483.38 199.21 483.37 197.98 482.51   Q 194.94 480.40 191.26 479.46   Q 187.10 478.40 186.34 478.13   Q 184.02 477.32 181.55 476.40   A 1.81 1.76 -9.2 0 1 180.74 475.83   Q 179.67 474.54 178.08 474.63   A 1.23 1.23 0.0 0 1 177.20 474.33   Q 176.38 473.61 175.43 472.99   Q 174.72 472.51 173.40 472.26   Q 170.59 471.72 169.42 469.37   Z"/>
<path fill="#9d9fa0" fill-opacity="0.608" d="   M 223.00 485.28   Q 220.16 485.46 217.38 485.35   Q 217.37 485.35 217.37 485.36   Q 217.37 485.37 217.37 485.37   Q 217.37 485.39 217.40 485.39   Q 220.54 485.37 223.73 485.39   Q 225.45 485.70 227.05 486.75   L 220.07 486.29   Q 219.78 486.27 220.07 486.25   Q 220.24 486.24 220.42 486.29   Q 220.48 486.31 220.51 486.28   Q 220.80 486.06 220.44 486.09   Q 216.37 486.40 213.15 483.06   L 219.56 484.11   Q 219.95 484.17 220.08 484.55   Q 220.14 484.72 220.33 484.81   A 0.44 0.38 -30.6 0 0 220.55 484.85   Q 221.80 484.68 223.00 485.28   Z"/>
<path fill="#ffffff" d="   M 223.00 485.28   L 223.73 485.39   Q 220.54 485.37 217.40 485.39   Q 217.37 485.39 217.37 485.37   Q 217.37 485.37 217.37 485.36   Q 217.37 485.35 217.38 485.35   Q 220.16 485.46 223.00 485.28   Z"/>
</svg>